<?xml version="1.0" standalone="no"?>
<!DOCTYPE svg PUBLIC "-//W3C//DTD SVG 20010904//EN"
 "http://www.w3.org/TR/2001/REC-SVG-20010904/DTD/svg10.dtd">
<svg version="1.0" xmlns="http://www.w3.org/2000/svg"
 width="700.000000pt" height="700.000000pt" viewBox="0 0 700.000000 700.000000"
 preserveAspectRatio="xMidYMid meet">
<metadata>
Created by potrace 1.11, written by Peter Selinger 2001-2013
</metadata>
<g transform="translate(0.000000,700.000000) scale(0.100000,-0.100000)"
fill="#000000" stroke="none">
<path d="M3286 6984 c-362 -65 -696 -309 -864 -632 -24 -45 -49 -82 -56 -82
-25 0 -142 -42 -246 -88 -762 -336 -1187 -1142 -1035 -1958 53 -278 190 -573
367 -785 l49 -59 3 -182 c2 -101 7 -196 10 -213 4 -16 15 -69 26 -116 57 -263
208 -535 408 -737 115 -115 127 -125 240 -201 186 -125 424 -219 622 -246 25
-3 59 -9 75 -12 17 -3 128 -5 248 -5 l219 1 -6 -92 c-3 -51 -8 -153 -11 -227
-3 -74 -7 -171 -10 -215 -2 -44 -7 -143 -10 -220 -4 -77 -8 -162 -10 -190 -2
-27 -7 -131 -11 -230 -3 -99 -8 -187 -10 -195 -1 -8 -3 -29 -3 -46 l-1 -31
-119 0 c-74 0 -131 -5 -150 -12 -86 -36 -84 -169 3 -201 19 -6 230 -10 603
-10 492 0 578 2 603 15 71 37 74 144 5 189 -23 15 -49 18 -156 18 -124 1 -129
1 -130 22 -5 84 -8 138 -13 256 -3 74 -8 178 -11 230 -11 228 -15 311 -20 410
-2 58 -7 161 -11 230 -6 127 -7 144 -19 400 -3 80 -7 160 -9 177 -1 18 -1 33
1 33 2 0 49 -13 106 -30 143 -41 259 -57 422 -58 245 0 441 43 661 143 60 28
206 111 239 137 82 63 199 164 230 199 22 25 54 61 72 81 17 20 58 76 91 124
338 503 355 1146 44 1669 -19 33 -55 86 -79 118 -24 31 -43 61 -43 65 0 4 14
27 31 52 94 138 174 360 194 538 10 79 7 251 -5 331 -22 147 -87 339 -146 433
-13 20 -24 40 -24 43 0 22 -123 177 -206 259 -227 223 -532 349 -873 361 -33
1 -56 6 -59 14 -9 27 -123 160 -188 219 -171 156 -384 261 -618 305 -95 18
-322 18 -420 1z"/>
</g>
</svg>
