<svg id="bulb-test" enable-background="new 0 0 300 300" height="512" viewBox="0 0 300 300" width="512" xmlns="http://www.w3.org/2000/svg" xmlns:xlink="http://www.w3.org/1999/xlink"><linearGradient id="SVGID_1_" gradientUnits="userSpaceOnUse" x1="42.639" x2="240.295" y1="272.289" y2="74.633"><stop offset="0" stop-color="#107eff"/><stop offset="1" stop-color="#8f16ff"/></linearGradient><g><path d="m256.352 129.95c0-2.362 1.915-4.277 4.277-4.277s4.276 1.915 4.276 4.277-1.915 4.276-4.276 4.276-4.277-1.914-4.277-4.276zm-25.18-29.128c.781.781 1.805 1.172 2.828 1.172s2.047-.391 2.828-1.172l3.172-3.172 3.172 3.172c.781.781 1.805 1.172 2.828 1.172s2.047-.391 2.828-1.172c1.562-1.562 1.562-4.094 0-5.656l-3.172-3.172 3.172-3.172c1.562-1.562 1.562-4.094 0-5.656s-4.094-1.562-5.656 0l-3.172 3.172-3.172-3.172c-1.562-1.562-4.094-1.562-5.656 0s-1.562 4.094 0 5.656l3.172 3.172-3.172 3.172c-1.563 1.562-1.563 4.093 0 5.656zm-185.172-40.828c0-7.719 6.281-14 14-14s14 6.281 14 14-6.281 14-14 14-14-6.281-14-14zm8 0c0 3.309 2.691 6 6 6s6-2.691 6-6-2.691-6-6-6-6 2.691-6 6zm220 194c0 2.209-1.791 4-4 4h-240c-2.209 0-4-1.791-4-4s1.791-4 4-4h13.116l7.089-21.266c.545-1.633 2.072-2.734 3.795-2.734h4v-1.943c0-5.545 4.512-10.057 10.057-10.057h19.887c5.545 0 10.057 4.512 10.057 10.057v1.943h28v-16h-8c-2.209 0-4-1.791-4-4v-12c0-2.209 1.791-4 4-4h8.008v-15.162c0-5.457-3.047-10.605-7.953-13.436-20.01-11.547-32.289-33.037-32.043-56.086.357-33.309 27.688-61.676 60.926-63.232 17.705-.82 34.475 5.43 47.246 17.621 12.783 12.197 19.824 28.645 19.824 46.309 0 22.734-12.26 43.945-31.996 55.359-5.012 2.898-8.004 7.861-8.004 13.279v15.348h7.991c2.209 0 4 1.791 4 4v12c0 2.209-1.791 4-4 4h-8v16h12v-8c0-2.209 1.791-4 4-4h16c2.209 0 4 1.791 4 4v8h4v-8c0-2.209 1.791-4 4-4h16c2.209 0 4 1.791 4 4v8h8c1.723 0 3.25 1.102 3.795 2.734l7.088 21.266h13.117c2.209 0 4 1.791 4 4zm-52-28h8v-4h-8zm-87.992-51.162v15.162h11.992v-60l-9.6 7.199c-.879.66-1.988.928-3.076.744-1.084-.186-2.043-.811-2.652-1.725l-8-12c-1.225-1.838-.729-4.322 1.109-5.547 1.836-1.23 4.318-.729 5.547 1.109l5.654 8.482 12.617-9.463c1.422-1.066 3.379-1.066 4.801 0l12.617 9.463 5.654-8.482c1.225-1.838 3.703-2.34 5.547-1.109 1.838 1.225 2.334 3.709 1.109 5.547l-8 12c-.609.914-1.568 1.539-2.652 1.725-.225.037-.451.057-.676.057-.859 0-1.703-.277-2.4-.801l-9.6-7.199v60h12.008v-15.348c0-8.307 4.486-15.861 12-20.205 17.271-9.988 28-28.547 28-48.434 0-15.457-6.16-29.848-17.346-40.521-11.18-10.666-25.883-16.148-41.35-15.416-29.078 1.361-52.988 26.182-53.301 55.326-.215 20.164 10.529 38.967 28.043 49.07 7.375 4.256 11.955 12.061 11.955 20.366zm-.008 51.162h32v-4h-20c-2.209 0-4-1.791-4-4s1.791-4 4-4h20v-4h-32zm-82.45 24h102.45v-8c0-2.209 1.791-4 4-4s4 1.791 4 4v8h8v-8c0-2.209 1.791-4 4-4s4 1.791 4 4v8h8v-8c0-2.209 1.791-4 4-4s4 1.791 4 4v8h8v-8c0-2.209 1.791-4 4-4s4 1.791 4 4v8h8v-8c0-2.209 1.791-4 4-4s4 1.791 4 4v8h22.449l-5.332-16h-186.234z" fill="url(#SVGID_1_)"/></g></svg>